<svg xmlns="http://www.w3.org/2000/svg" xmlns:xlink="http://www.w3.org/1999/xlink" width="800" zoomAndPan="magnify" viewBox="0 0 600 449.999984" height="600" preserveAspectRatio="xMidYMid meet" version="1.0"><defs><clipPath id="df8eaa9534"><path d="M 349.710938 159.59375 L 437.460938 159.59375 L 437.460938 247.34375 L 349.710938 247.34375 Z M 349.710938 159.59375 " clip-rule="nonzero"/></clipPath></defs><rect x="-60" width="720" fill="#ffffff" y="-44.999998" height="539.99998" fill-opacity="1"/><rect x="-60" width="720" fill="#ffffff" y="-44.999998" height="539.99998" fill-opacity="1"/><rect x="-60" width="720" fill="#ffffff" y="-44.999998" height="539.99998" fill-opacity="1"/><path stroke-linecap="round" transform="matrix(13.4375, 0, 0, 13.4375, 138.836177, 63.836172)" fill="none" stroke-linejoin="round" d="M 15.749983 5.999983 C 15.749983 6.122948 15.743878 6.245332 15.731959 6.367425 C 15.720041 6.489808 15.702018 6.611029 15.67789 6.731669 C 15.654052 6.852018 15.624111 6.970913 15.588645 7.088646 C 15.55289 7.206087 15.511611 7.321494 15.464518 7.435157 C 15.417425 7.548529 15.365099 7.659285 15.30725 7.767715 C 15.249401 7.876146 15.18632 7.981378 15.118006 8.083413 C 15.049692 8.185448 14.976727 8.283994 14.89882 8.379053 C 14.820913 8.47382 14.738355 8.564808 14.651727 8.651727 C 14.564808 8.738355 14.47382 8.820913 14.379052 8.89882 C 14.283994 8.976727 14.185448 9.049692 14.083413 9.118006 C 13.981378 9.18632 13.876145 9.249401 13.767715 9.30725 C 13.659285 9.365099 13.548529 9.417425 13.435157 9.464518 C 13.321494 9.511611 13.206087 9.55289 13.088645 9.588646 C 12.970913 9.624111 12.852017 9.654053 12.731669 9.67789 C 12.611029 9.702018 12.489808 9.720041 12.367424 9.73196 C 12.245331 9.743878 12.122948 9.749983 11.999983 9.749983 C 11.877308 9.749983 11.754634 9.743878 11.632541 9.73196 C 11.510157 9.720041 11.388936 9.702018 11.268296 9.67789 C 11.147948 9.654053 11.029052 9.624111 10.91132 9.588646 C 10.793878 9.55289 10.678471 9.511611 10.564808 9.464518 C 10.451436 9.417425 10.34068 9.365099 10.23225 9.30725 C 10.12382 9.249401 10.018587 9.18632 9.916552 9.118006 C 9.814517 9.049692 9.715971 8.976727 9.620913 8.89882 C 9.526145 8.820913 9.435157 8.738355 9.348238 8.651727 C 9.26161 8.564808 9.179052 8.47382 9.101145 8.379053 C 9.023238 8.283994 8.950273 8.185448 8.881959 8.083413 C 8.813645 7.981378 8.750564 7.876146 8.692715 7.767715 C 8.634866 7.659285 8.582541 7.548529 8.535448 7.435157 C 8.488355 7.321494 8.447075 7.206087 8.41161 7.088646 C 8.375855 6.970913 8.345913 6.852018 8.322075 6.731669 C 8.298238 6.611029 8.280215 6.489808 8.268006 6.367425 C 8.256087 6.245332 8.249982 6.122948 8.249982 5.999983 C 8.249982 5.877308 8.256087 5.754634 8.268006 5.632541 C 8.280215 5.510157 8.298238 5.388936 8.322075 5.268297 C 8.345913 5.147948 8.375855 5.029052 8.41161 4.91132 C 8.447075 4.793878 8.488355 4.678471 8.535448 4.564808 C 8.582541 4.451436 8.634866 4.34068 8.692715 4.23225 C 8.750564 4.12382 8.813645 4.018587 8.881959 3.916552 C 8.950273 3.814518 9.023238 3.715971 9.101145 3.620913 C 9.179052 3.526145 9.26161 3.435157 9.348238 3.348238 C 9.435157 3.261611 9.526145 3.179052 9.620913 3.101145 C 9.715971 3.023238 9.814517 2.950273 9.916552 2.881959 C 10.018587 2.813645 10.12382 2.750564 10.23225 2.692715 C 10.34068 2.634866 10.451436 2.582541 10.564808 2.535448 C 10.678471 2.488355 10.793878 2.447076 10.91132 2.411611 C 11.029052 2.375855 11.147948 2.345913 11.268296 2.322076 C 11.388936 2.298238 11.510157 2.280215 11.632541 2.268006 C 11.754634 2.256087 11.877308 2.249983 11.999983 2.249983 C 12.122948 2.249983 12.245331 2.256087 12.367424 2.268006 C 12.489808 2.280215 12.611029 2.298238 12.731669 2.322076 C 12.852017 2.345913 12.970913 2.375855 13.088645 2.411611 C 13.206087 2.447076 13.321494 2.488355 13.435157 2.535448 C 13.548529 2.582541 13.659285 2.634866 13.767715 2.692715 C 13.876145 2.750564 13.981378 2.813645 14.083413 2.881959 C 14.185448 2.950273 14.283994 3.023238 14.379052 3.101145 C 14.47382 3.179052 14.564808 3.261611 14.651727 3.348238 C 14.738355 3.435157 14.820913 3.526145 14.89882 3.620913 C 14.976727 3.715971 15.049692 3.814518 15.118006 3.916552 C 15.18632 4.018587 15.249401 4.12382 15.30725 4.23225 C 15.365099 4.34068 15.417425 4.451436 15.464518 4.564808 C 15.511611 4.678471 15.55289 4.793878 15.588645 4.91132 C 15.624111 5.029052 15.654052 5.147948 15.67789 5.268297 C 15.702018 5.388936 15.720041 5.510157 15.731959 5.632541 C 15.743878 5.754634 15.749983 5.877308 15.749983 5.999983 Z M 4.501145 20.118006 C 4.502889 19.996495 4.507831 19.875274 4.51568 19.754053 C 4.523529 19.632832 4.534575 19.511902 4.548238 19.391262 C 4.561901 19.270623 4.578761 19.150274 4.598238 19.030216 C 4.618006 18.910448 4.640389 18.791262 4.66568 18.672367 C 4.691261 18.553471 4.719459 18.435448 4.750564 18.318006 C 4.781668 18.200565 4.81568 18.083995 4.852599 17.968297 C 4.889227 17.852599 4.928761 17.737774 4.971203 17.62382 C 5.013645 17.510158 5.058703 17.397367 5.106668 17.285739 C 5.154343 17.174111 5.204924 17.063646 5.258122 16.954344 C 5.31132 16.845332 5.367134 16.737483 5.425564 16.631088 C 5.484285 16.524402 5.54504 16.41946 5.608703 16.315971 C 5.672366 16.212483 5.738354 16.110448 5.806959 16.010157 C 5.875273 15.909867 5.946203 15.81132 6.019459 15.714518 C 6.092715 15.617716 6.168587 15.522657 6.246494 15.429343 C 6.324401 15.33632 6.404343 15.245041 6.486901 15.155797 C 6.569168 15.066553 6.653471 14.979343 6.740099 14.894169 C 6.826727 14.808995 6.915389 14.725855 7.006087 14.645041 C 7.096494 14.563936 7.189227 14.485448 7.283703 14.408995 C 7.377889 14.332541 7.474401 14.258704 7.572366 14.186902 C 7.670331 14.115099 7.770041 14.045913 7.871494 13.979053 C 7.972948 13.912192 8.075855 13.847948 8.180506 13.786029 C 8.284866 13.724111 8.390971 13.664809 8.498238 13.608123 C 8.605796 13.551436 8.714517 13.497367 8.824401 13.445913 C 8.934575 13.39446 9.045913 13.345623 9.158122 13.299692 C 9.270622 13.253762 9.383994 13.210448 9.498529 13.170041 C 9.613064 13.129343 9.728471 13.091553 9.84475 13.056669 C 9.96132 13.021785 10.07818 12.989809 10.196203 12.960739 C 10.314227 12.931378 10.432541 12.904925 10.551727 12.881669 C 10.670913 12.858122 10.79068 12.837483 10.910738 12.820041 C 11.031087 12.802309 11.151727 12.787483 11.272366 12.775855 C 11.393296 12.763936 11.514517 12.755216 11.635738 12.749402 C 11.75725 12.743297 11.878471 12.74039 11.999983 12.74039 C 12.121494 12.74039 12.243006 12.743297 12.364227 12.749402 C 12.485448 12.755216 12.606669 12.763936 12.727599 12.775855 C 12.848529 12.787483 12.968878 12.802309 13.089227 12.820041 C 13.209285 12.837483 13.329052 12.858122 13.448238 12.881669 C 13.567424 12.904925 13.685738 12.931378 13.803762 12.960739 C 13.921785 12.989809 14.038936 13.021785 14.155215 13.056669 C 14.271494 13.091553 14.386901 13.129343 14.501436 13.170041 C 14.615971 13.210448 14.729343 13.253762 14.841843 13.299692 C 14.954343 13.345623 15.06539 13.39446 15.175564 13.445913 C 15.285448 13.497367 15.394169 13.551436 15.501727 13.608123 C 15.608994 13.664809 15.715099 13.724111 15.819459 13.786029 C 15.924111 13.847948 16.027018 13.912192 16.128471 13.979053 C 16.229925 14.045913 16.329634 14.115099 16.427599 14.186902 C 16.525855 14.258704 16.622076 14.332541 16.716552 14.408995 C 16.810739 14.485448 16.903471 14.563936 16.993878 14.645041 C 17.084576 14.725855 17.173239 14.808995 17.259866 14.894169 C 17.346494 14.979343 17.430797 15.066553 17.513355 15.155797 C 17.595622 15.245041 17.675855 15.33632 17.753762 15.429343 C 17.831669 15.522657 17.90725 15.617716 17.980506 15.714518 C 18.053762 15.81132 18.124692 15.909867 18.193297 16.010157 C 18.261611 16.110448 18.327599 16.212483 18.391262 16.315971 C 18.454925 16.41946 18.515971 16.524402 18.574401 16.631088 C 18.632832 16.737483 18.688646 16.845332 18.741843 16.954344 C 18.795041 17.063646 18.845622 17.174111 18.893297 17.285739 C 18.941262 17.397367 18.98632 17.510158 19.028762 17.62382 C 19.071204 17.737774 19.110739 17.852599 19.147657 17.968297 C 19.184285 18.083995 19.218297 18.200565 19.249401 18.318006 C 19.280506 18.435448 19.308704 18.553471 19.334285 18.672367 C 19.359576 18.791262 19.38225 18.910448 19.401727 19.030216 C 19.421204 19.150274 19.438064 19.270623 19.451727 19.391262 C 19.46539 19.511902 19.476436 19.632832 19.484285 19.754053 C 19.492134 19.875274 19.497076 19.996495 19.499111 20.118006 C 18.912483 20.386902 18.313355 20.62353 17.701436 20.827599 C 17.089518 21.03196 16.468297 21.202599 15.837773 21.339809 C 15.207541 21.477018 14.571494 21.579925 13.929924 21.64853 C 13.288355 21.717134 12.645041 21.750855 11.999983 21.749983 C 9.32411 21.749983 6.783994 21.165972 4.501145 20.118006 Z M 4.501145 20.118006 " stroke="#000000" stroke-width="1.5" stroke-opacity="1" stroke-miterlimit="4"/><g clip-path="url(#df8eaa9534)"><path fill="#2ecc71" d="M 437.460938 203.46875 C 437.460938 227.691406 417.808594 247.34375 393.585938 247.34375 C 369.363281 247.34375 349.710938 227.691406 349.710938 203.46875 C 349.710938 179.246094 369.363281 159.59375 393.585938 159.59375 C 417.808594 159.59375 437.460938 179.246094 437.460938 203.46875 Z M 437.460938 203.46875 " fill-opacity="1" fill-rule="evenodd"/></g><path fill="#ecf0f1" d="M 363.859375 204.441406 L 387.128906 227.710938 L 423.3125 191.527344 L 415.5625 183.757812 L 387.128906 212.210938 L 371.609375 196.6875 Z M 363.859375 204.441406 " fill-opacity="1" fill-rule="evenodd"/></svg>