<svg xmlns="http://www.w3.org/2000/svg" xmlns:xlink="http://www.w3.org/1999/xlink" width="400" zoomAndPan="magnify" viewBox="0 0 300 299.999988" height="400" preserveAspectRatio="xMidYMid meet" version="1.0"><defs><clipPath id="7dbfda412b"><path d="M 199.011719 91.222656 L 279.261719 91.222656 L 279.261719 171.472656 L 199.011719 171.472656 Z M 199.011719 91.222656 " clip-rule="nonzero"/></clipPath></defs><rect x="-30" width="360" fill="#ffffff" y="-29.999999" height="359.999986" fill-opacity="1"/><rect x="-30" width="360" fill="#ffffff" y="-29.999999" height="359.999986" fill-opacity="1"/><rect x="-30" width="360" fill="#ffffff" y="-29.999999" height="359.999986" fill-opacity="1"/><path stroke-linecap="round" transform="matrix(13.90625, 0, 0, 13.90625, -17.034943, -17.034949)" fill="none" stroke-linejoin="round" d="M 15.749985 5.999985 C 15.749985 6.122738 15.744086 6.24521 15.732008 6.367682 C 15.719929 6.489873 15.701951 6.611221 15.678075 6.731727 C 15.653918 6.851952 15.624142 6.971053 15.588468 7.088468 C 15.552794 7.206165 15.511502 7.321615 15.464592 7.435098 C 15.417682 7.548581 15.365154 7.659536 15.307289 7.767682 C 15.249423 7.876109 15.186221 7.981165 15.117963 8.083412 C 15.049704 8.185379 14.976671 8.283974 14.898862 8.378918 C 14.820772 8.473862 14.738468 8.564873 14.651671 8.651671 C 14.564873 8.738469 14.473862 8.820772 14.378918 8.898862 C 14.283974 8.976671 14.185378 9.049704 14.083412 9.117963 C 13.981165 9.186221 13.876109 9.249424 13.767682 9.307289 C 13.659536 9.365154 13.548581 9.417682 13.435097 9.464592 C 13.321614 9.511502 13.206165 9.552794 13.088468 9.588469 C 12.971053 9.624143 12.851951 9.653918 12.731727 9.678075 C 12.611221 9.701952 12.489873 9.719929 12.367682 9.732008 C 12.24521 9.744087 12.122738 9.749985 11.999985 9.749985 C 11.877232 9.749985 11.75476 9.744087 11.632569 9.732008 C 11.510097 9.719929 11.388749 9.701952 11.268524 9.678075 C 11.148019 9.653918 11.028918 9.624143 10.911502 9.588469 C 10.793805 9.552794 10.678356 9.511502 10.564873 9.464592 C 10.451389 9.417682 10.340715 9.365154 10.232288 9.307289 C 10.123861 9.249424 10.018805 9.186221 9.916558 9.117963 C 9.814592 9.049704 9.715996 8.976671 9.621052 8.898862 C 9.526109 8.820772 9.435097 8.738469 9.3483 8.651671 C 9.261502 8.564873 9.179198 8.473862 9.101109 8.378918 C 9.0233 8.283974 8.950266 8.185379 8.882007 8.083412 C 8.813749 7.981165 8.750828 7.876109 8.692682 7.767682 C 8.634816 7.659536 8.582569 7.548581 8.535378 7.435098 C 8.488468 7.321615 8.447176 7.206165 8.411502 7.088468 C 8.375828 6.971053 8.346052 6.851952 8.322176 6.731727 C 8.298019 6.611221 8.280041 6.489873 8.267962 6.367682 C 8.255884 6.24521 8.249985 6.122738 8.249985 5.999985 C 8.249985 5.877232 8.255884 5.754761 8.267962 5.63257 C 8.280041 5.510098 8.298019 5.388749 8.322176 5.268525 C 8.346052 5.148019 8.375828 5.028918 8.411502 4.911502 C 8.447176 4.793805 8.488468 4.678356 8.535378 4.564873 C 8.582569 4.45139 8.634816 4.340716 8.692682 4.232289 C 8.750828 4.123862 8.813749 4.018805 8.882007 3.916558 C 8.950266 3.814592 9.0233 3.715996 9.101109 3.621053 C 9.179198 3.526109 9.261502 3.435098 9.3483 3.3483 C 9.435097 3.261502 9.526109 3.179199 9.621052 3.101109 C 9.715996 3.0233 9.814592 2.950266 9.916558 2.882008 C 10.018805 2.813749 10.123861 2.750828 10.232288 2.692682 C 10.340715 2.634817 10.451389 2.582569 10.564873 2.535378 C 10.678356 2.488468 10.793805 2.447176 10.911502 2.411502 C 11.028918 2.375828 11.148019 2.346053 11.268524 2.322176 C 11.388749 2.298019 11.510097 2.280041 11.632569 2.267963 C 11.75476 2.255884 11.877232 2.249985 11.999985 2.249985 C 12.122738 2.249985 12.24521 2.255884 12.367682 2.267963 C 12.489873 2.280041 12.611221 2.298019 12.731727 2.322176 C 12.851951 2.346053 12.971053 2.375828 13.088468 2.411502 C 13.206165 2.447176 13.321614 2.488468 13.435097 2.535378 C 13.548581 2.582569 13.659536 2.634817 13.767682 2.692682 C 13.876109 2.750828 13.981165 2.813749 14.083412 2.882008 C 14.185378 2.950266 14.283974 3.0233 14.378918 3.101109 C 14.473862 3.179199 14.564873 3.261502 14.651671 3.3483 C 14.738468 3.435098 14.820772 3.526109 14.898862 3.621053 C 14.976671 3.715996 15.049704 3.814592 15.117963 3.916558 C 15.186221 4.018805 15.249423 4.123862 15.307289 4.232289 C 15.365154 4.340716 15.417682 4.45139 15.464592 4.564873 C 15.511502 4.678356 15.552794 4.793805 15.588468 4.911502 C 15.624142 5.028918 15.653918 5.148019 15.678075 5.268525 C 15.701951 5.388749 15.719929 5.510098 15.732008 5.63257 C 15.744086 5.754761 15.749985 5.877232 15.749985 5.999985 Z M 4.501108 20.117963 C 4.503075 19.996615 4.50785 19.875267 4.515715 19.753918 C 4.52358 19.632851 4.534535 19.511784 4.548299 19.391278 C 4.562063 19.270491 4.578636 19.150267 4.598299 19.030323 C 4.617962 18.910379 4.640434 18.790997 4.665715 18.672458 C 4.691277 18.553637 4.719367 18.435379 4.750547 18.317963 C 4.781726 18.200548 4.815715 18.083974 4.852513 17.968244 C 4.889311 17.852514 4.928917 17.737626 4.971333 17.623862 C 5.013468 17.510098 5.058693 17.397458 5.106445 17.28566 C 5.154479 17.174143 5.205041 17.06375 5.258131 16.95448 C 5.311502 16.84521 5.36712 16.737345 5.425828 16.630885 C 5.484254 16.524424 5.54521 16.419368 5.608693 16.315997 C 5.672176 16.212345 5.738187 16.11066 5.806726 16.010379 C 5.875266 15.910098 5.946333 15.811502 6.019648 15.714592 C 6.092962 15.617682 6.168524 15.522738 6.246333 15.42948 C 6.324423 15.336222 6.404479 15.244929 6.486783 15.155884 C 6.569086 15.066559 6.653637 14.979199 6.740153 14.894087 C 6.82667 14.808974 6.915434 14.725828 7.005884 14.644929 C 7.096614 14.564031 7.18903 14.485379 7.283693 14.408974 C 7.378075 14.33257 7.474142 14.258693 7.572176 14.186783 C 7.670491 14.115154 7.77021 14.045772 7.871614 13.978918 C 7.973019 13.912064 8.075828 13.847738 8.180322 13.785941 C 8.284816 13.724143 8.390996 13.664873 8.4983 13.608132 C 8.605603 13.55139 8.714592 13.497177 8.824423 13.445772 C 8.934536 13.394368 9.045771 13.345772 9.158131 13.299705 C 9.270491 13.253637 9.383974 13.210379 9.49858 13.169929 C 9.613187 13.12948 9.728637 13.091559 9.844929 13.056727 C 9.961221 13.021896 10.078356 12.989873 10.196333 12.96066 C 10.31403 12.931446 10.432569 12.905042 10.551951 12.881727 C 10.671052 12.858132 10.790715 12.837626 10.91094 12.819929 C 11.031165 12.802233 11.15167 12.787626 11.272457 12.775828 C 11.393524 12.76403 11.514592 12.755323 11.63594 12.749424 C 11.757008 12.743525 11.878637 12.740435 11.999985 12.740435 C 12.121333 12.740435 12.242963 12.743525 12.364311 12.749424 C 12.485378 12.755323 12.606727 12.76403 12.727513 12.775828 C 12.8483 12.787626 12.968805 12.802233 13.08903 12.819929 C 13.209255 12.837626 13.328918 12.858132 13.4483 12.881727 C 13.567401 12.905042 13.68594 12.931446 13.803918 12.96066 C 13.921614 12.989873 14.038749 13.021896 14.155041 13.056727 C 14.271614 13.091559 14.386783 13.12948 14.50139 13.169929 C 14.615996 13.210379 14.72948 13.253637 14.841839 13.299705 C 14.954199 13.345772 15.065435 13.394368 15.175547 13.445772 C 15.285659 13.497177 15.394367 13.55139 15.501671 13.608132 C 15.608974 13.664873 15.715154 13.724143 15.819648 13.785941 C 15.924143 13.847738 16.027232 13.912064 16.128637 13.978918 C 16.230041 14.045772 16.32976 14.115154 16.427794 14.186783 C 16.525828 14.258693 16.621895 14.33257 16.716277 14.408974 C 16.81094 14.485379 16.903356 14.564031 16.994086 14.644929 C 17.084536 14.725828 17.1733 14.808974 17.259817 14.894087 C 17.346334 14.979199 17.430884 15.066559 17.513188 15.155884 C 17.595491 15.244929 17.675828 15.336222 17.753637 15.42948 C 17.831446 15.522738 17.907289 15.617682 17.980322 15.714592 C 18.053637 15.811502 18.124704 15.910098 18.193244 16.010379 C 18.261783 16.11066 18.327794 16.212345 18.391277 16.315997 C 18.454761 16.419368 18.515716 16.524424 18.574423 16.630885 C 18.63285 16.737345 18.688468 16.84521 18.741839 16.95448 C 18.794929 17.06375 18.845491 17.174143 18.893525 17.28566 C 18.941277 17.397458 18.986502 17.510098 19.028637 17.623862 C 19.071053 17.737626 19.110659 17.852514 19.147457 17.968244 C 19.184255 18.083974 19.218244 18.200548 19.249424 18.317963 C 19.280603 18.435379 19.308974 18.553637 19.334255 18.672458 C 19.359536 18.790997 19.382008 18.910379 19.401671 19.030323 C 19.421334 19.150267 19.437907 19.270491 19.451671 19.391278 C 19.465435 19.511784 19.47639 19.632851 19.484255 19.753918 C 19.49212 19.875267 19.496895 19.996615 19.498862 20.117963 C 18.912626 20.386784 18.313468 20.623581 17.70139 20.827795 C 17.089311 21.032008 16.468244 21.202795 15.837907 21.339873 C 15.207289 21.476952 14.571614 21.580042 13.930041 21.648581 C 13.288468 21.717121 12.64521 21.750829 11.999985 21.749986 C 9.323861 21.749986 6.783974 21.165997 4.501108 20.117963 Z M 4.501108 20.117963 " stroke="#000000" stroke-width="1.5" stroke-opacity="1" stroke-miterlimit="4"/><g clip-path="url(#7dbfda412b)"><path fill="#2ecc71" d="M 279.261719 131.347656 C 279.261719 153.5 261.289062 171.472656 239.136719 171.472656 C 216.984375 171.472656 199.011719 153.5 199.011719 131.347656 C 199.011719 109.195312 216.984375 91.222656 239.136719 91.222656 C 261.289062 91.222656 279.261719 109.195312 279.261719 131.347656 Z M 279.261719 131.347656 " fill-opacity="1" fill-rule="evenodd"/></g><path fill="#ecf0f1" d="M 211.953125 132.234375 L 233.234375 153.515625 L 266.324219 120.425781 L 259.234375 113.320312 L 233.234375 139.339844 L 219.039062 125.144531 Z M 211.953125 132.234375 " fill-opacity="1" fill-rule="evenodd"/></svg>